HIERARCHY
ROOT Hips
{
	OFFSET 53.316700 -37.102116 97.212494
	CHANNELS 6 Xposition Yposition Zposition Xrotation Yrotation Zrotation
	JOINT spine
	{
		OFFSET 0.000000 -0.458069 7.965683
		CHANNELS 3 Xrotation Yrotation Zrotation
		JOINT spine1
		{
			OFFSET 0.000000 -0.000004 10.243103
			CHANNELS 3 Xrotation Yrotation Zrotation
			JOINT spine2
			{
				OFFSET 0.000000 0.000000 9.814751
				CHANNELS 3 Xrotation Yrotation Zrotation
				JOINT Neck
				{
					OFFSET 0.000000 -1.201385 25.198601
					CHANNELS 3 Xrotation Yrotation Zrotation
					JOINT Head
					{
						OFFSET 0.000000 -0.000004 7.613144
						CHANNELS 3 Xrotation Yrotation Zrotation
						End Site
						{
							OFFSET 0.000000 6.077328 18.428101
						}
					}
				}
				JOINT RightShoulder
				{
					OFFSET -4.132702 0.575447 10.599205
					CHANNELS 3 Xrotation Yrotation Zrotation
					JOINT RightArm
					{
						OFFSET 0.000000 0.000000 13.901794
						CHANNELS 3 Xrotation Yrotation Zrotation
						JOINT RightArmRoll
						{
							OFFSET 0.000000 -0.000004 7.017883
							CHANNELS 3 Xrotation Yrotation Zrotation
							JOINT RightForeArm
							{
								OFFSET 0.000000 -0.000004 20.440598
								CHANNELS 3 Xrotation Yrotation Zrotation
								JOINT RightForeArmRoll
								{
									OFFSET 0.000000 0.000000 7.875168
									CHANNELS 3 Xrotation Yrotation Zrotation
									JOINT RightHand
									{
										OFFSET 0.000000 -0.000004 15.803696
										CHANNELS 3 Xrotation Yrotation Zrotation
										End Site
										{
											OFFSET 0.000000 0.000000 0.100006
										}
									}
								}
							}
						}
					}
				}
				JOINT LeftShoulder
				{
					OFFSET 4.132702 0.575447 10.599205
					CHANNELS 3 Xrotation Yrotation Zrotation
					JOINT LeftArm
					{
						OFFSET 0.000000 0.000000 13.901794
						CHANNELS 3 Xrotation Yrotation Zrotation
						JOINT LeftArmRoll
						{
							OFFSET 0.000000 -0.000004 7.017883
							CHANNELS 3 Xrotation Yrotation Zrotation
							JOINT LeftForeArm
							{
								OFFSET 0.000000 -0.000004 20.440598
								CHANNELS 3 Xrotation Yrotation Zrotation
								JOINT LeftForeArmRoll
								{
									OFFSET 0.000000 0.000000 7.875153
									CHANNELS 3 Xrotation Yrotation Zrotation
									JOINT LeftHand
									{
										OFFSET 0.000000 -0.000004 15.803696
										CHANNELS 3 Xrotation Yrotation Zrotation
										End Site
										{
											OFFSET 0.000000 0.000000 0.100006
										}
									}
								}
							}
						}
					}
				}
			}
		}
	}
	JOINT RightUpLeg
	{
		OFFSET -7.060482 1.086102 -1.294701
		CHANNELS 3 Xrotation Yrotation Zrotation
		JOINT RightUpLegRoll
		{
			OFFSET 0.000000 -0.000004 18.530800
			CHANNELS 3 Xrotation Yrotation Zrotation
			JOINT RightLeg
			{
				OFFSET 0.000000 0.000004 -22.947601
				CHANNELS 3 Xrotation Yrotation Zrotation
				JOINT RightLegRoll
				{
					OFFSET 0.000000 -0.000004 23.022598
					CHANNELS 3 Xrotation Yrotation Zrotation
					JOINT RightFoot
					{
						OFFSET 0.000000 -0.000004 19.162506
						CHANNELS 3 Xrotation Yrotation Zrotation
						JOINT RightToeBase
						{
							OFFSET 0.000000 0.000000 16.018799
							CHANNELS 3 Xrotation Yrotation Zrotation
							End Site
							{
								OFFSET 0.006790 0.894203 7.757812
							}
						}
					}
				}
			}
		}
	}
	JOINT LeftUpLeg
	{
		OFFSET 7.060482 1.086102 -1.294701
		CHANNELS 3 Xrotation Yrotation Zrotation
		JOINT LeftUpLegRoll
		{
			OFFSET 0.000000 -0.000004 18.530899
			CHANNELS 3 Xrotation Yrotation Zrotation
			JOINT LeftLeg
			{
				OFFSET 0.000000 -0.000004 22.947502
				CHANNELS 3 Xrotation Yrotation Zrotation
				JOINT LeftLegRoll
				{
					OFFSET 0.000000 -0.000004 23.235504
					CHANNELS 3 Xrotation Yrotation Zrotation
					JOINT LeftFoot
					{
						OFFSET 0.000000 -0.000004 18.949600
						CHANNELS 3 Xrotation Yrotation Zrotation
						JOINT LeftToeBase
						{
							OFFSET 0.000000 0.000000 16.018799
							CHANNELS 3 Xrotation Yrotation Zrotation
							End Site
							{
								OFFSET -0.030430 0.894203 7.757812
							}
						}
					}
				}
			}
		}
	}
}
MOTION
Frames: 9
Frame Time: 0.041667
53.038300 -14.764112 78.043488 21.256925 -0.353256 -0.485123 2.917842 -0.070374 -0.237124 9.838204 -0.154112 -0.469123 11.483240 -0.159720 -0.467246 -39.896064 11.885917 3.504797 26.007301 -9.888946 0.419261 -10.102791 -51.297261 -11.459209 -53.227449 -141.065441 -79.493812 0.000004 0.000008 -0.000006 43.369358 -16.426183 4.780545 -0.000002 -0.000000 -2.999989 -5.000265 -7.998952 0.000125 -25.712394 57.728342 30.470686 120.773782 47.692267 -87.625815 -0.000001 -0.000000 0.000001 59.088376 15.733450 -5.534875 0.000002 -0.000003 2.999969 -4.999918 7.998890 -0.000054 -73.769205 -177.805342 0.182265 179.999991 0.000005 -0.967997 108.809831 -0.136722 -2.410353 0.000002 0.000002 1.597410 77.006742 6.626019 2.320276 31.006665 -7.263737 1.314893 -75.122081 174.799854 1.137663 -0.000019 -0.000004 -0.927635 -71.183125 -0.301328 1.560087 -0.000003 0.000003 -1.875630 74.644207 -6.703757 -2.249764 28.178736 7.181571 -3.956303 
53.042000 -14.874716 78.219887 21.165325 -0.355654 -0.477425 2.899381 -0.068475 -0.234102 9.801281 -0.149705 -0.463153 11.446345 -0.155243 -0.461328 -39.925963 11.820557 3.467294 26.015992 -9.859359 0.403939 -10.065079 -51.351913 -11.416266 -53.229290 -141.135081 -79.274891 0.000004 0.000007 -0.000005 42.861370 -16.551720 4.770380 -0.000000 0.000001 -2.999988 -5.000262 -7.998955 0.000126 -25.641462 57.929758 30.378567 120.585829 47.585300 -87.748028 0.000000 0.000001 0.000001 58.397783 15.891233 -5.587201 0.000005 -0.000005 2.999972 -4.999923 7.998886 -0.000059 -73.394344 -177.804359 0.160130 179.999991 0.000005 -0.966999 109.114574 -0.158821 -2.417270 0.000000 0.000002 1.587430 76.969170 6.627384 2.318835 31.022412 -7.263525 1.318223 -74.742979 174.824347 1.150636 -0.000020 -0.000004 -0.927690 -70.866436 -0.278003 1.568757 -0.000001 0.000003 -1.861499 74.616456 -6.705110 -2.247802 28.179134 7.181545 -3.956890 
53.056400 -14.974018 78.402878 21.073833 -0.357526 -0.469511 2.880685 -0.066516 -0.231174 9.763899 -0.145152 -0.457364 11.408939 -0.150621 -0.455594 -39.957027 11.751593 3.428248 26.027136 -9.828583 0.388800 -10.021680 -51.407344 -11.366362 -53.229969 -141.192646 -79.054877 0.000005 0.000008 -0.000008 42.375498 -16.670105 4.758707 -0.000002 -0.000000 -2.999990 -5.000268 -7.998951 0.000127 -25.555911 58.144997 30.268359 120.374202 47.491016 -87.852489 0.000000 0.000000 -0.000001 57.705434 16.040604 -5.633591 0.000004 -0.000002 2.999972 -4.999923 7.998886 -0.000059 -73.019053 -177.804605 0.138168 179.999991 0.000005 -0.965005 109.420703 -0.180554 -2.422100 0.000000 0.000002 1.577480 76.930722 6.628760 2.317448 31.037664 -7.263332 1.321849 -74.363193 174.848731 1.163016 -0.000017 -0.000004 -0.927746 -70.547801 -0.254756 1.577220 -0.000002 0.000003 -1.847250 74.588186 -6.706518 -2.245880 28.179236 7.181533 -3.957155 
53.046696 -15.074512 78.579094 20.982327 -0.358914 -0.461280 2.861801 -0.064529 -0.228338 9.726137 -0.140526 -0.451757 11.371239 -0.145927 -0.450042 -39.989193 11.679835 3.388077 26.040578 -9.797257 0.374035 -9.973698 -51.463652 -11.310852 -53.229102 -141.239993 -78.833183 0.000004 0.000008 -0.000008 41.908408 -16.781686 4.745570 -0.000003 -0.000001 -2.999994 -5.000267 -7.998953 0.000130 -25.458559 58.370100 30.143520 120.145883 47.405871 -87.944833 -0.000000 0.000002 -0.000002 57.010701 16.182368 -5.674244 0.000002 -0.000002 2.999972 -4.999921 7.998885 -0.000058 -72.643119 -177.805383 0.115112 179.999991 0.000005 -0.963994 109.728205 -0.202207 -2.427839 0.000001 0.000002 1.567540 76.891510 6.630147 2.315910 31.052516 -7.263142 1.325729 -73.982847 174.872678 1.176648 -0.000022 -0.000004 -0.927802 -70.227295 -0.231691 1.585431 -0.000004 0.000003 -1.832909 74.559294 -6.707998 -2.244004 28.179233 7.181504 -3.957132 
53.052597 -15.172916 78.756485 20.890730 -0.359863 -0.452626 2.842754 -0.062548 -0.225590 9.688073 -0.135897 -0.446328 11.333132 -0.141233 -0.444670 -40.022248 11.606272 3.347296 26.056087 -9.766229 0.359885 -9.922276 -51.520732 -11.251163 -53.226746 -141.278174 -78.610334 0.000005 0.000008 -0.000008 41.457028 -16.886804 4.730979 -0.000001 0.000001 -2.999989 -5.000268 -7.998950 0.000126 -25.352172 58.601541 30.007572 119.905870 47.327443 -88.028284 0.000001 -0.000000 0.000001 56.312642 16.317532 -5.709325 0.000002 -0.000002 2.999974 -4.999917 7.998886 -0.000055 -72.266530 -177.806927 0.092514 179.999991 0.000005 -0.962997 110.037107 -0.223418 -2.431533 0.000000 0.000002 1.557610 76.851328 6.631577 2.314433 31.067160 -7.262940 1.329836 -73.601879 174.896761 1.190524 -0.000020 -0.000004 -0.927859 -69.905026 -0.208896 1.593307 -0.000002 0.000003 -1.818500 74.529863 -6.709484 -2.242063 28.179125 7.181484 -3.956854 
53.050098 -15.281616 78.923599 20.798831 -0.360415 -0.443446 2.823584 -0.060605 -0.222929 9.649735 -0.131337 -0.441080 11.294832 -0.136611 -0.439476 -40.055805 11.531763 3.306247 26.073827 -9.736201 0.346635 -9.868506 -51.578583 -11.188624 -53.223409 -141.308541 -78.386960 0.000004 0.000008 -0.000008 41.017912 -16.985746 4.714710 -0.000002 -0.000002 -2.999992 -5.000265 -7.998952 0.000124 -25.239854 58.835509 29.864343 119.662893 47.251348 -88.111121 0.000000 -0.000000 0.000002 55.610666 16.446846 -5.738899 0.000003 -0.000002 2.999973 -4.999919 7.998880 -0.000059 -71.889319 -177.808839 0.069923 179.999991 0.000005 -0.961002 110.347300 -0.244447 -2.435126 0.000003 0.000002 1.547670 76.810388 6.633010 2.312902 31.081493 -7.262734 1.334082 -73.220167 174.921199 1.204059 -0.000021 -0.000004 -0.927916 -69.581207 -0.186412 1.600794 -0.000003 0.000003 -1.804029 74.499797 -6.711005 -2.240066 28.178727 7.181474 -3.956305 
53.052700 -15.381411 79.095795 20.706627 -0.360615 -0.433636 2.804320 -0.058731 -0.220349 9.611230 -0.126918 -0.436009 11.256333 -0.132132 -0.434458 -40.089819 11.457255 3.265504 26.093529 -9.707737 0.334420 -9.813507 -51.637118 -11.124641 -53.219748 -141.331599 -78.164330 0.000004 0.000007 -0.000004 40.587733 -17.078960 4.696666 -0.000001 -0.000000 -2.999991 -5.000267 -7.998950 0.000125 -25.124665 59.068330 29.717658 119.421855 47.175270 -88.196450 0.000000 0.000000 0.000001 54.904086 16.571156 -5.763171 0.000004 -0.000005 2.999970 -4.999922 7.998883 -0.000059 -71.511336 -177.810670 0.046935 179.999991 0.000005 -0.960005 110.658784 -0.265312 -2.438643 -0.000002 0.000002 1.537729 76.768581 6.634456 2.311426 31.095635 -7.262518 1.338427 -72.837854 174.946048 1.217984 -0.000022 -0.000003 -0.927972 -69.255912 -0.164405 1.607833 -0.000001 0.000003 -1.789520 74.468992 -6.712549 -2.238018 28.178219 7.181466 -3.955528 
53.052799 -15.485718 79.275482 20.613926 -0.360509 -0.423095 2.785000 -0.056961 -0.217850 9.572613 -0.122712 -0.431116 11.217728 -0.127867 -0.429616 -40.123939 11.383600 3.225424 26.115158 -9.681656 0.323517 -9.758454 -51.696425 -11.060640 -53.214957 -141.349809 -77.941208 0.000004 0.000008 -0.000006 40.163527 -17.166775 4.676751 0.000001 0.000001 -2.999989 -5.000265 -7.998953 0.000127 -25.010438 59.296349 29.572096 119.189465 47.095940 -88.289860 0.000000 0.000000 0.000002 54.192165 16.691488 -5.782229 0.000002 -0.000002 2.999972 -4.999920 7.998884 -0.000061 -71.132541 -177.812678 0.024987 179.999991 0.000005 -0.957997 110.971449 -0.286345 -2.443003 0.000002 0.000002 1.527780 76.726022 6.635913 2.309794 31.109568 -7.262283 1.342804 -72.454879 174.971374 1.232811 -0.000020 -0.000004 -0.928030 -68.929163 -0.142893 1.614348 -0.000002 0.000003 -1.775010 74.437246 -6.714193 -2.235939 28.177512 7.181459 -3.954529 
53.050594 -15.576715 79.446884 20.520521 -0.360143 -0.411719 2.765673 -0.055325 -0.215427 9.533959 -0.118789 -0.426401 11.179024 -0.123889 -0.424949 -40.157991 11.311685 3.186473 26.138579 -9.658602 0.314121 -9.704443 -51.756418 -10.998012 -53.210596 -141.363237 -77.720183 0.000004 0.000007 -0.000003 39.741644 -17.249644 4.654661 -0.000001 -0.000000 -2.999991 -5.000267 -7.998950 0.000127 -24.900114 59.516008 29.431476 118.973276 47.009661 -88.398193 -0.000000 0.000000 -0.000001 53.474132 16.808605 -5.795838 0.000005 -0.000006 2.999972 -4.999923 7.998881 -0.000060 -70.752932 -177.814058 0.002582 179.999991 0.000005 -0.957000 111.285297 -0.306766 -2.446343 0.000001 0.000002 1.517809 76.682588 6.637403 2.308322 31.123294 -7.262026 1.347157 -72.071384 174.997561 1.247793 -0.000019 -0.000004 -0.928087 -68.601129 -0.122009 1.620313 -0.000001 0.000003 -1.760500 74.404638 -6.715833 -2.233913 28.176806 7.181452 -3.953357 
